<mxfile host="65bd71144e">
    <diagram id="ae4ZZPAMTVhFgB_L6D0S" name="Страница 1">
        <mxGraphModel dx="1060" dy="787" grid="1" gridSize="10" guides="1" tooltips="1" connect="1" arrows="1" fold="1" page="1" pageScale="1" pageWidth="827" pageHeight="1169" math="0" shadow="0">
            <root>
                <mxCell id="0"/>
                <mxCell id="1" parent="0"/>
                <mxCell id="2" value="Загрузка/append данных с MOEX" style="rounded=1;whiteSpace=wrap;html=1;absoluteArcSize=1;arcSize=14;strokeWidth=2;" vertex="1" parent="1">
                    <mxGeometry x="40" y="40" width="160" height="70" as="geometry"/>
                </mxCell>
                <mxCell id="3" value="Проверка обновлений фин.отчетов / Загрузка" style="rounded=1;whiteSpace=wrap;html=1;absoluteArcSize=1;arcSize=14;strokeWidth=2;" vertex="1" parent="1">
                    <mxGeometry x="40" y="140" width="160" height="70" as="geometry"/>
                </mxCell>
                <mxCell id="4" value="Проверка обновлений фин.отчетов / Загрузка" style="rounded=1;whiteSpace=wrap;html=1;absoluteArcSize=1;arcSize=14;strokeWidth=2;" vertex="1" parent="1">
                    <mxGeometry x="40" y="240" width="160" height="70" as="geometry"/>
                </mxCell>
            </root>
        </mxGraphModel>
    </diagram>
</mxfile>